M48
; DRILL file {KiCad 5.1.5-52549c5~84~ubuntu18.04.1} date jue 27 feb 2020 16:13:36 -05
; FORMAT={-:-/ absolute / inch / decimal}
; #@! TF.CreationDate,2020-02-27T16:13:36-05:00
; #@! TF.GenerationSoftware,Kicad,Pcbnew,5.1.5-52549c5~84~ubuntu18.04.1
; #@! TF.FileFunction,Plated,1,2,PTH
FMAT,2
INCH
T1C0.0157
T2C0.0236
T3C0.0300
T4C0.0600
T5C0.0600
%
G90
G05
T1
X-0.225Y-0.461
X-0.065Y-0.87
X-0.018Y-0.41
X0.0Y-0.91
X0.115Y-1.045
X0.12Y-1.91
X0.21Y-0.25
X0.34Y-0.96
X0.415Y-1.865
X0.42Y-1.91
X0.43Y-1.66
X0.5Y-1.0276
X0.5Y-1.2812
X0.64Y-1.91
X0.73Y-1.23
X0.78Y-1.235
X0.8Y-1.78
X0.81Y-0.25
X0.9062Y-0.9375
X1.2Y-1.755
X1.22Y-1.201
X1.27Y-0.385
X1.305Y-2.635
X1.3125Y-0.9062
X1.43Y-2.065
X1.49Y-2.05
X1.505Y-2.375
X1.775Y-0.385
X2.56Y-2.67
X4.22Y-2.005
T3
X-0.1462Y-1.3313
X-0.1462Y-1.5312
X-0.1462Y-1.7312
X-0.1412Y-1.4312
X-0.1412Y-1.6312
X-0.0462Y-1.3313
X-0.0462Y-1.5312
X-0.0462Y-1.7312
X-0.0413Y-1.4312
X-0.0413Y-1.6312
T4
X-0.0563Y-2.15
X0.1938Y-2.05
X13.675Y-2.525
X13.775Y-2.775
X8.6625Y-2.9
X8.9125Y-2.8
X0.0375Y-0.65
X0.2875Y-0.55
X0.8812Y-2.9
X1.1312Y-2.8
X1.8187Y-2.9
X2.0688Y-2.8
X9.975Y0.1
X10.225Y0.2
X7.5375Y-2.9
X7.7875Y-2.8
X10.2562Y-1.025
X10.5062Y-0.925
X-0.0563Y-2.9
X0.1938Y-2.8
X4.6312Y-2.9
X4.8812Y-2.8
X0.1313Y-1.4
X0.3812Y-1.3
X9.3187Y-2.15
X9.5687Y-2.05
X13.675Y-1.025
X13.775Y-1.275
T5
X11.475Y-1.4
X11.725Y-1.3
X3.4125Y-1.4
X3.6625Y-1.3
X7.1625Y-1.4
X7.4125Y-1.3
X5.1Y0.1
X5.35Y0.2
X6.7875Y-2.15
X7.0375Y-2.05
X2.475Y-0.65
X2.725Y-0.55
X1.725Y-0.65
X1.975Y-0.55
X3.225Y-0.65
X3.475Y-0.55
X12.975Y-1.4
X13.225Y-1.3
X9.225Y-0.65
X9.475Y-0.55
X1.5375Y-2.15
X1.7875Y-2.05
X2.1Y0.1
X2.35Y0.2
X1.9125Y-1.4
X2.1625Y-1.3
X11.475Y-2.15
X11.725Y-2.05
X12.975Y0.1
X13.225Y0.2
X10.5375Y-2.3375
X10.7875Y-2.2375
X11.2875Y-3.0875
X11.5375Y-2.9875
X8.1Y0.1
X8.35Y0.2
X8.85Y0.1
X9.1Y0.2
X5.475Y-0.65
X5.725Y-0.55
X4.1625Y-1.4
X4.4125Y-1.3
X4.5375Y-2.15
X4.7875Y-2.05
X0.7875Y-2.15
X1.0375Y-2.05
X12.225Y-2.15
X12.475Y-2.05
X3.975Y-0.65
X4.225Y-0.55
X7.35Y0.1
X7.6Y0.2
X9.7875Y-3.0875
X10.0375Y-2.9875
X12.975Y-0.65
X13.225Y-0.55
X4.9125Y-1.4
X5.1625Y-1.3
X2.2875Y-2.15
X2.5375Y-2.05
X7.9125Y-1.4
X8.1625Y-1.3
X2.6625Y-1.4
X2.9125Y-1.3
X13.725Y0.1
X13.975Y0.2
X5.2875Y-2.15
X5.5375Y-2.05
X-0.15Y0.1
X0.1Y0.2
X3.0375Y-2.15
X3.2875Y-2.05
X11.475Y0.1
X11.725Y0.2
X7.725Y-0.65
X7.975Y-0.55
X3.6Y0.1
X3.85Y0.2
X4.725Y-0.65
X4.975Y-0.55
X2.85Y0.1
X3.1Y0.2
X11.475Y-0.65
X11.725Y-0.55
X5.6625Y-1.4
X5.9125Y-1.3
X9.4125Y-1.4
X9.6625Y-1.3
X1.1625Y-1.4
X1.4125Y-1.3
X10.5375Y-3.0875
X10.7875Y-2.9875
X12.225Y-0.65
X12.475Y-0.55
X12.975Y-2.15
X13.225Y-2.05
X1.35Y0.1
X1.6Y0.2
X6.975Y-0.65
X7.225Y-0.55
X7.5375Y-2.15
X7.7875Y-2.05
X5.85Y0.1
X6.1Y0.2
X12.225Y-2.9
X12.475Y-2.8
X6.225Y-0.65
X6.475Y-0.55
X4.35Y0.1
X4.6Y0.2
X6.4125Y-1.4
X6.6625Y-1.3
X12.225Y-1.4
X12.475Y-1.3
X6.0375Y-2.15
X6.2875Y-2.05
X12.975Y-2.9
X13.225Y-2.8
X12.225Y0.1
X12.475Y0.2
X3.7875Y-2.15
X4.0375Y-2.05
X8.2875Y-2.15
X8.5375Y-2.05
X6.6Y0.1
X6.85Y0.2
X8.6625Y-1.4
X8.9125Y-1.3
X8.475Y-0.65
X8.725Y-0.55
X0.975Y-0.65
X1.225Y-0.55
X0.6Y0.1
X0.85Y0.2
T2
G00X0.1885Y0.3465
M15
G01X0.1885Y0.3228
M16
G05
G00X0.1885Y0.1909
M15
G01X0.1885Y0.1476
M16
G05
G00X0.5271Y0.3465
M15
G01X0.5271Y0.3228
M16
G05
G00X0.5271Y0.1909
M15
G01X0.5271Y0.1476
M16
G05
T0
M30
