G04 #@! TF.GenerationSoftware,KiCad,Pcbnew,5.1.5-52549c5~84~ubuntu18.04.1*
G04 #@! TF.CreationDate,2020-02-27T16:13:33-05:00*
G04 #@! TF.ProjectId,muente1800,6d75656e-7465-4313-9830-302e6b696361,rev?*
G04 #@! TF.SameCoordinates,Original*
G04 #@! TF.FileFunction,Profile,NP*
%FSLAX46Y46*%
G04 Gerber Fmt 4.6, Leading zero omitted, Abs format (unit mm)*
G04 Created by KiCad (PCBNEW 5.1.5-52549c5~84~ubuntu18.04.1) date 2020-02-27 16:13:33*
%MOMM*%
%LPD*%
G04 APERTURE LIST*
%ADD10C,0.300000*%
G04 APERTURE END LIST*
D10*
X-7152500Y-85400000D02*
X240497500Y-85400000D01*
X359577500Y9200000D02*
X15047500Y9200000D01*
X-7152500Y9200000D02*
G75*
G03X-9152500Y7200000I0J-2000000D01*
G01*
X-9152500Y-83400000D02*
G75*
G03X-7152500Y-85400000I2000000J0D01*
G01*
X359577500Y-85400000D02*
G75*
G03X361577500Y-83400000I0J2000000D01*
G01*
X361577500Y7200000D02*
G75*
G03X359577500Y9200000I-2000000J0D01*
G01*
X-9152500Y-83400000D02*
X-9152500Y-48700000D01*
X-9152500Y-48700000D02*
X-9152500Y7200000D01*
X361577500Y-48700000D02*
X361577500Y-83400000D01*
X361577500Y-48700000D02*
X361577500Y7200000D01*
X3547500Y9700000D02*
X14547500Y9700000D01*
X3047500Y9200000D02*
G75*
G03X3547500Y9700000I0J500000D01*
G01*
X14547500Y9700000D02*
G75*
G03X15047500Y9200000I500000J0D01*
G01*
X-7152500Y9200000D02*
X3047500Y9200000D01*
X245260000Y-90162500D02*
X298410000Y-90162500D01*
X240497500Y-85400000D02*
G75*
G02X242878750Y-87781250I0J-2381250D01*
G01*
X245260000Y-90162500D02*
G75*
G02X242878750Y-87781250I0J2381250D01*
G01*
X303172500Y-85400000D02*
X359577500Y-85400000D01*
X300791250Y-87781250D02*
G75*
G02X303172500Y-85400000I2381250J0D01*
G01*
X300791250Y-87781250D02*
G75*
G02X298410000Y-90162500I-2381250J0D01*
G01*
M02*
