M48
; DRILL file {KiCad 5.1.5-52549c5~84~ubuntu18.04.1} date jue 27 feb 2020 16:13:36 -05
; FORMAT={-:-/ absolute / inch / decimal}
; #@! TF.CreationDate,2020-02-27T16:13:36-05:00
; #@! TF.GenerationSoftware,Kicad,Pcbnew,5.1.5-52549c5~84~ubuntu18.04.1
; #@! TF.FileFunction,NonPlated,1,2,NPTH
FMAT,2
INCH
T1C0.0256
T2C0.0670
T3C0.1200
T4C0.1570
%
G90
G05
T1
X0.244Y0.191
X0.4716Y0.191
T2
X10.4875Y-3.1875
X10.8875Y-3.1875
X12.175Y-0.75
X12.575Y-0.75
X12.925Y-2.25
X13.325Y-2.25
X1.3Y0.0
X1.7Y0.0
X8.6125Y-3.0
X9.0125Y-3.0
X6.925Y-0.75
X7.325Y-0.75
X-0.0125Y-0.75
X0.3875Y-0.75
X7.4875Y-2.25
X7.8875Y-2.25
X5.8Y0.0
X6.2Y0.0
X12.175Y-3.0
X12.575Y-3.0
X0.8312Y-3.0
X1.2312Y-3.0
X6.175Y-0.75
X6.575Y-0.75
X1.7688Y-3.0
X2.1687Y-3.0
X4.3Y0.0
X4.7Y0.0
X9.925Y0.0
X10.325Y0.0
X6.3625Y-1.5
X6.7625Y-1.5
X12.175Y-1.5
X12.575Y-1.5
X5.9875Y-2.25
X6.3875Y-2.25
X12.925Y-3.0
X13.325Y-3.0
X12.175Y0.0
X12.575Y0.0
X3.7375Y-2.25
X4.1375Y-2.25
X7.4875Y-3.0
X7.8875Y-3.0
X8.2375Y-2.25
X8.6375Y-2.25
X6.55Y0.0
X6.95Y0.0
X10.2062Y-1.125
X10.6062Y-1.125
X8.6125Y-1.5
X9.0125Y-1.5
X-0.1062Y-3.0
X0.2938Y-3.0
X8.425Y-0.75
X8.825Y-0.75
X0.925Y-0.75
X1.325Y-0.75
X0.55Y0.0
X0.95Y0.0
X11.425Y-1.5
X11.825Y-1.5
X4.5812Y-3.0
X4.9813Y-3.0
X0.0813Y-1.5
X0.4813Y-1.5
X3.3625Y-1.5
X3.7625Y-1.5
X9.2687Y-2.25
X9.6687Y-2.25
X7.1125Y-1.5
X7.5125Y-1.5
X5.05Y0.0
X5.45Y0.0
X6.7375Y-2.25
X7.1375Y-2.25
X2.425Y-0.75
X2.825Y-0.75
X1.675Y-0.75
X2.075Y-0.75
X3.175Y-0.75
X3.575Y-0.75
X12.925Y-1.5
X13.325Y-1.5
X13.875Y-0.925
X13.875Y-1.325
X9.175Y-0.75
X9.575Y-0.75
X1.4875Y-2.25
X1.8875Y-2.25
X2.05Y0.0
X2.45Y0.0
X1.8625Y-1.5
X2.2625Y-1.5
X11.425Y-2.25
X11.825Y-2.25
X12.925Y0.0
X13.325Y0.0
X10.4875Y-2.4375
X10.8875Y-2.4375
X11.2375Y-3.1875
X11.6375Y-3.1875
X-0.1062Y-2.25
X0.2938Y-2.25
X8.05Y0.0
X8.45Y0.0
X8.8Y0.0
X9.2Y0.0
X5.425Y-0.75
X5.825Y-0.75
X4.1125Y-1.5
X4.5125Y-1.5
X4.4875Y-2.25
X4.8875Y-2.25
X0.7375Y-2.25
X1.1375Y-2.25
X12.175Y-2.25
X12.575Y-2.25
X3.925Y-0.75
X4.325Y-0.75
X7.3Y0.0
X7.7Y0.0
X9.7375Y-3.1875
X10.1375Y-3.1875
X12.925Y-0.75
X13.325Y-0.75
X4.8625Y-1.5
X5.2625Y-1.5
X2.2375Y-2.25
X2.6375Y-2.25
X7.8625Y-1.5
X8.2625Y-1.5
X2.6125Y-1.5
X3.0125Y-1.5
X13.675Y0.0
X14.075Y0.0
X5.2375Y-2.25
X5.6375Y-2.25
X-0.2Y0.0
X0.2Y0.0
X2.9875Y-2.25
X3.3875Y-2.25
X11.425Y0.0
X11.825Y0.0
X7.675Y-0.75
X8.075Y-0.75
X13.875Y-2.425
X13.875Y-2.825
X3.55Y0.0
X3.95Y0.0
X4.675Y-0.75
X5.075Y-0.75
X2.8Y0.0
X3.2Y0.0
X11.425Y-0.75
X11.825Y-0.75
X5.6125Y-1.5
X6.0125Y-1.5
X9.3625Y-1.5
X9.7625Y-1.5
X1.1125Y-1.5
X1.5125Y-1.5
T3
X14.15Y-3.095
X9.655Y0.275
X10.595Y0.275
X10.6813Y-0.655
X2.8112Y-3.275
X6.7512Y-3.275
X14.15Y-0.655
X14.15Y-1.595
X14.15Y-2.155
X10.6813Y-1.595
T4
X3.5625Y-1.5
X9.4688Y-2.25
X7.3125Y-1.5
X5.25Y0.0
X6.9375Y-2.25
X2.625Y-0.75
X1.875Y-0.75
X3.375Y-0.75
X13.125Y-1.5
X13.55Y-0.655
X13.55Y-1.595
X13.875Y-1.125
X9.375Y-0.75
X1.6875Y-2.25
X2.25Y0.0
X2.0625Y-1.5
X11.625Y-2.25
X13.125Y0.0
X10.6875Y-2.4375
X11.4375Y-3.1875
X0.0938Y-2.25
X8.25Y0.0
X9.0Y0.0
X5.625Y-0.75
X4.3125Y-1.5
X4.6875Y-2.25
X0.9375Y-2.25
X12.375Y-2.25
X4.125Y-0.75
X7.5Y0.0
X9.9375Y-3.1875
X13.125Y-0.75
X5.0625Y-1.5
X2.4375Y-2.25
X8.0625Y-1.5
X2.8125Y-1.5
X13.875Y0.0
X5.4375Y-2.25
X0.0Y0.0
X3.1875Y-2.25
X11.625Y0.0
X7.875Y-0.75
X13.55Y-2.155
X13.55Y-3.095
X13.875Y-2.625
X3.75Y0.0
X4.875Y-0.75
X3.0Y0.0
X11.625Y-0.75
X5.8125Y-1.5
X9.5625Y-1.5
X1.3125Y-1.5
X10.6875Y-3.1875
X12.375Y-0.75
X13.125Y-2.25
X1.5Y0.0
X8.8125Y-3.0
X7.125Y-0.75
X0.1875Y-0.75
X7.6875Y-2.25
X6.0Y0.0
X12.375Y-3.0
X1.0312Y-3.0
X6.375Y-0.75
X1.9688Y-3.0
X4.5Y0.0
X9.655Y-0.325
X10.125Y0.0
X10.595Y-0.325
X6.5625Y-1.5
X12.375Y-1.5
X6.1875Y-2.25
X13.125Y-3.0
X12.375Y0.0
X3.9375Y-2.25
X7.6875Y-3.0
X8.4375Y-2.25
X6.75Y0.0
X10.0812Y-0.655
X10.0812Y-1.595
X10.4062Y-1.125
X8.8125Y-1.5
X0.0938Y-3.0
X8.625Y-0.75
X1.125Y-0.75
X0.75Y0.0
X11.625Y-1.5
X2.8112Y-2.675
X4.7812Y-3.0
X6.7512Y-2.675
X0.2812Y-1.5
T0
M30
