G04 #@! TF.GenerationSoftware,KiCad,Pcbnew,5.1.5-52549c5~84~ubuntu18.04.1*
G04 #@! TF.CreationDate,2020-02-27T16:13:33-05:00*
G04 #@! TF.ProjectId,muente1800,6d75656e-7465-4313-9830-302e6b696361,rev?*
G04 #@! TF.SameCoordinates,Original*
G04 #@! TF.FileFunction,Legend,Top*
G04 #@! TF.FilePolarity,Positive*
%FSLAX46Y46*%
G04 Gerber Fmt 4.6, Leading zero omitted, Abs format (unit mm)*
G04 Created by KiCad (PCBNEW 5.1.5-52549c5~84~ubuntu18.04.1) date 2020-02-27 16:13:33*
%MOMM*%
%LPD*%
G04 APERTURE LIST*
%ADD10O,1.626000X1.626000*%
%ADD11R,1.626000X1.626000*%
%ADD12C,2.642000*%
%ADD13C,1.803800*%
%ADD14C,4.089800*%
%ADD15C,3.150000*%
%ADD16O,1.202000X2.302000*%
%ADD17O,1.402000X2.002000*%
%ADD18C,0.752000*%
G04 APERTURE END LIST*
%LPC*%
D10*
X-1174750Y-43973750D03*
X-3714750Y-43973750D03*
X-1047750Y-41433750D03*
X-3587750Y-41433750D03*
X-3714750Y-38893750D03*
X-3587750Y-36353750D03*
X-3714750Y-33813750D03*
D11*
X-1174750Y-33813750D03*
D10*
X-1047750Y-36353750D03*
X-1174750Y-38893750D03*
D12*
X29527500Y-35560000D03*
X35877500Y-33020000D03*
D13*
X38417500Y-38100000D03*
X28257500Y-38100000D03*
D14*
X33337500Y-38100000D03*
D13*
X31273750Y-76200000D03*
X21113750Y-76200000D03*
D12*
X28733750Y-71120000D03*
X22383750Y-73660000D03*
D14*
X26193750Y-76200000D03*
D12*
X115252500Y-54610000D03*
X121602500Y-52070000D03*
D13*
X124142500Y-57150000D03*
X113982500Y-57150000D03*
D14*
X119062500Y-57150000D03*
D12*
X24765000Y-16510000D03*
X31115000Y-13970000D03*
D13*
X33655000Y-19050000D03*
X23495000Y-19050000D03*
D14*
X28575000Y-19050000D03*
D12*
X-3810000Y2540000D03*
X2540000Y5080000D03*
D13*
X5080000Y0D03*
X-5080000Y0D03*
D14*
X0Y0D03*
X171481750Y-67945000D03*
X71405750Y-67945000D03*
D15*
X71405750Y-83185000D03*
X171481750Y-83185000D03*
D13*
X126523750Y-76200000D03*
X116363750Y-76200000D03*
D12*
X123983750Y-71120000D03*
X117633750Y-73660000D03*
D14*
X121443750Y-76200000D03*
D12*
X260508750Y-26035000D03*
X266858750Y-23495000D03*
D14*
X256063750Y-40513000D03*
X256063750Y-16637000D03*
D15*
X271303750Y-16637000D03*
X271303750Y-40513000D03*
D13*
X259238750Y-28575000D03*
X269398750Y-28575000D03*
D14*
X264318750Y-28575000D03*
X269113000Y-8255000D03*
X245237000Y-8255000D03*
D15*
X245237000Y6985000D03*
X269113000Y6985000D03*
D13*
X262255000Y0D03*
X252095000Y0D03*
D12*
X259715000Y5080000D03*
X253365000Y2540000D03*
D14*
X257175000Y0D03*
X344170000Y-54737000D03*
X344170000Y-78613000D03*
D15*
X359410000Y-78613000D03*
X359410000Y-54737000D03*
D13*
X352425000Y-61595000D03*
X352425000Y-71755000D03*
D12*
X347345000Y-64135000D03*
X349885000Y-70485000D03*
D14*
X352425000Y-66675000D03*
X344170000Y-16637000D03*
X344170000Y-40513000D03*
D15*
X359410000Y-40513000D03*
X359410000Y-16637000D03*
D13*
X352425000Y-23495000D03*
X352425000Y-33655000D03*
D12*
X347345000Y-26035000D03*
X349885000Y-32385000D03*
D14*
X352425000Y-28575000D03*
D13*
X55086250Y-76200000D03*
X44926250Y-76200000D03*
D12*
X52546250Y-71120000D03*
X46196250Y-73660000D03*
D14*
X50006250Y-76200000D03*
D13*
X7461250Y-76200000D03*
X-2698750Y-76200000D03*
D12*
X4921250Y-71120000D03*
X-1428750Y-73660000D03*
D14*
X2381250Y-76200000D03*
D13*
X7461250Y-57150000D03*
X-2698750Y-57150000D03*
D12*
X4921250Y-52070000D03*
X-1428750Y-54610000D03*
D14*
X2381250Y-57150000D03*
D13*
X245586250Y-57150000D03*
X235426250Y-57150000D03*
D12*
X243046250Y-52070000D03*
X236696250Y-54610000D03*
D14*
X240506250Y-57150000D03*
D13*
X12223750Y-38100000D03*
X2063750Y-38100000D03*
D12*
X9683750Y-33020000D03*
X3333750Y-35560000D03*
D14*
X7143750Y-38100000D03*
D13*
X228917500Y-76200000D03*
X218757500Y-76200000D03*
D12*
X226377500Y-71120000D03*
X220027500Y-73660000D03*
D14*
X223837500Y-76200000D03*
D13*
X200342500Y-76200000D03*
X190182500Y-76200000D03*
D12*
X197802500Y-71120000D03*
X191452500Y-73660000D03*
D14*
X195262500Y-76200000D03*
D13*
X9842500Y-19050000D03*
X-317500Y-19050000D03*
D12*
X7302500Y-13970000D03*
X952500Y-16510000D03*
D14*
X4762500Y-19050000D03*
D12*
X329565000Y-73660000D03*
X335915000Y-71120000D03*
D13*
X338455000Y-76200000D03*
X328295000Y-76200000D03*
D14*
X333375000Y-76200000D03*
D12*
X310515000Y-73660000D03*
X316865000Y-71120000D03*
D13*
X319405000Y-76200000D03*
X309245000Y-76200000D03*
D14*
X314325000Y-76200000D03*
D12*
X286702500Y-78422500D03*
X293052500Y-75882500D03*
D13*
X295592500Y-80962500D03*
X285432500Y-80962500D03*
D14*
X290512500Y-80962500D03*
D12*
X267652500Y-78422500D03*
X274002500Y-75882500D03*
D13*
X276542500Y-80962500D03*
X266382500Y-80962500D03*
D14*
X271462500Y-80962500D03*
D12*
X248602500Y-78422500D03*
X254952500Y-75882500D03*
D13*
X257492500Y-80962500D03*
X247332500Y-80962500D03*
D14*
X252412500Y-80962500D03*
D12*
X329565000Y-54610000D03*
X335915000Y-52070000D03*
D13*
X338455000Y-57150000D03*
X328295000Y-57150000D03*
D14*
X333375000Y-57150000D03*
D12*
X310515000Y-54610000D03*
X316865000Y-52070000D03*
D13*
X319405000Y-57150000D03*
X309245000Y-57150000D03*
D14*
X314325000Y-57150000D03*
D12*
X291465000Y-54610000D03*
X297815000Y-52070000D03*
D13*
X300355000Y-57150000D03*
X290195000Y-57150000D03*
D14*
X295275000Y-57150000D03*
D12*
X267652500Y-59372500D03*
X274002500Y-56832500D03*
D13*
X276542500Y-61912500D03*
X266382500Y-61912500D03*
D14*
X271462500Y-61912500D03*
D12*
X210502500Y-54610000D03*
X216852500Y-52070000D03*
D13*
X219392500Y-57150000D03*
X209232500Y-57150000D03*
D14*
X214312500Y-57150000D03*
D12*
X191452500Y-54610000D03*
X197802500Y-52070000D03*
D13*
X200342500Y-57150000D03*
X190182500Y-57150000D03*
D14*
X195262500Y-57150000D03*
D12*
X172402500Y-54610000D03*
X178752500Y-52070000D03*
D13*
X181292500Y-57150000D03*
X171132500Y-57150000D03*
D14*
X176212500Y-57150000D03*
D12*
X153352500Y-54610000D03*
X159702500Y-52070000D03*
D13*
X162242500Y-57150000D03*
X152082500Y-57150000D03*
D14*
X157162500Y-57150000D03*
D12*
X134302500Y-54610000D03*
X140652500Y-52070000D03*
D13*
X143192500Y-57150000D03*
X133032500Y-57150000D03*
D14*
X138112500Y-57150000D03*
D12*
X96202500Y-54610000D03*
X102552500Y-52070000D03*
D13*
X105092500Y-57150000D03*
X94932500Y-57150000D03*
D14*
X100012500Y-57150000D03*
D12*
X77152500Y-54610000D03*
X83502500Y-52070000D03*
D13*
X86042500Y-57150000D03*
X75882500Y-57150000D03*
D14*
X80962500Y-57150000D03*
D12*
X58102500Y-54610000D03*
X64452500Y-52070000D03*
D13*
X66992500Y-57150000D03*
X56832500Y-57150000D03*
D14*
X61912500Y-57150000D03*
D12*
X39052500Y-54610000D03*
X45402500Y-52070000D03*
D13*
X47942500Y-57150000D03*
X37782500Y-57150000D03*
D14*
X42862500Y-57150000D03*
D12*
X20002500Y-54610000D03*
X26352500Y-52070000D03*
D13*
X28892500Y-57150000D03*
X18732500Y-57150000D03*
D14*
X23812500Y-57150000D03*
D12*
X329565000Y-35560000D03*
X335915000Y-33020000D03*
D13*
X338455000Y-38100000D03*
X328295000Y-38100000D03*
D14*
X333375000Y-38100000D03*
D12*
X310515000Y-35560000D03*
X316865000Y-33020000D03*
D13*
X319405000Y-38100000D03*
X309245000Y-38100000D03*
D14*
X314325000Y-38100000D03*
D12*
X291465000Y-35560000D03*
X297815000Y-33020000D03*
D13*
X300355000Y-38100000D03*
X290195000Y-38100000D03*
D14*
X295275000Y-38100000D03*
D12*
X239077500Y-35560000D03*
X245427500Y-33020000D03*
D13*
X247967500Y-38100000D03*
X237807500Y-38100000D03*
D14*
X242887500Y-38100000D03*
D12*
X220027500Y-35560000D03*
X226377500Y-33020000D03*
D13*
X228917500Y-38100000D03*
X218757500Y-38100000D03*
D14*
X223837500Y-38100000D03*
D12*
X200977500Y-35560000D03*
X207327500Y-33020000D03*
D13*
X209867500Y-38100000D03*
X199707500Y-38100000D03*
D14*
X204787500Y-38100000D03*
D12*
X181927500Y-35560000D03*
X188277500Y-33020000D03*
D13*
X190817500Y-38100000D03*
X180657500Y-38100000D03*
D14*
X185737500Y-38100000D03*
D12*
X162877500Y-35560000D03*
X169227500Y-33020000D03*
D13*
X171767500Y-38100000D03*
X161607500Y-38100000D03*
D14*
X166687500Y-38100000D03*
D12*
X143827500Y-35560000D03*
X150177500Y-33020000D03*
D13*
X152717500Y-38100000D03*
X142557500Y-38100000D03*
D14*
X147637500Y-38100000D03*
D12*
X124777500Y-35560000D03*
X131127500Y-33020000D03*
D13*
X133667500Y-38100000D03*
X123507500Y-38100000D03*
D14*
X128587500Y-38100000D03*
D12*
X105727500Y-35560000D03*
X112077500Y-33020000D03*
D13*
X114617500Y-38100000D03*
X104457500Y-38100000D03*
D14*
X109537500Y-38100000D03*
D12*
X86677500Y-35560000D03*
X93027500Y-33020000D03*
D13*
X95567500Y-38100000D03*
X85407500Y-38100000D03*
D14*
X90487500Y-38100000D03*
D12*
X67627500Y-35560000D03*
X73977500Y-33020000D03*
D13*
X76517500Y-38100000D03*
X66357500Y-38100000D03*
D14*
X71437500Y-38100000D03*
D12*
X48577500Y-35560000D03*
X54927500Y-33020000D03*
D13*
X57467500Y-38100000D03*
X47307500Y-38100000D03*
D14*
X52387500Y-38100000D03*
D12*
X329565000Y-16510000D03*
X335915000Y-13970000D03*
D13*
X338455000Y-19050000D03*
X328295000Y-19050000D03*
D14*
X333375000Y-19050000D03*
D12*
X310515000Y-16510000D03*
X316865000Y-13970000D03*
D13*
X319405000Y-19050000D03*
X309245000Y-19050000D03*
D14*
X314325000Y-19050000D03*
D12*
X291465000Y-16510000D03*
X297815000Y-13970000D03*
D13*
X300355000Y-19050000D03*
X290195000Y-19050000D03*
D14*
X295275000Y-19050000D03*
D12*
X234315000Y-16510000D03*
X240665000Y-13970000D03*
D13*
X243205000Y-19050000D03*
X233045000Y-19050000D03*
D14*
X238125000Y-19050000D03*
D12*
X215265000Y-16510000D03*
X221615000Y-13970000D03*
D13*
X224155000Y-19050000D03*
X213995000Y-19050000D03*
D14*
X219075000Y-19050000D03*
D12*
X196215000Y-16510000D03*
X202565000Y-13970000D03*
D13*
X205105000Y-19050000D03*
X194945000Y-19050000D03*
D14*
X200025000Y-19050000D03*
D12*
X177165000Y-16510000D03*
X183515000Y-13970000D03*
D13*
X186055000Y-19050000D03*
X175895000Y-19050000D03*
D14*
X180975000Y-19050000D03*
D12*
X158115000Y-16510000D03*
X164465000Y-13970000D03*
D13*
X167005000Y-19050000D03*
X156845000Y-19050000D03*
D14*
X161925000Y-19050000D03*
D12*
X139065000Y-16510000D03*
X145415000Y-13970000D03*
D13*
X147955000Y-19050000D03*
X137795000Y-19050000D03*
D14*
X142875000Y-19050000D03*
D12*
X120015000Y-16510000D03*
X126365000Y-13970000D03*
D13*
X128905000Y-19050000D03*
X118745000Y-19050000D03*
D14*
X123825000Y-19050000D03*
D12*
X100965000Y-16510000D03*
X107315000Y-13970000D03*
D13*
X109855000Y-19050000D03*
X99695000Y-19050000D03*
D14*
X104775000Y-19050000D03*
D12*
X81915000Y-16510000D03*
X88265000Y-13970000D03*
D13*
X90805000Y-19050000D03*
X80645000Y-19050000D03*
D14*
X85725000Y-19050000D03*
D12*
X62865000Y-16510000D03*
X69215000Y-13970000D03*
D13*
X71755000Y-19050000D03*
X61595000Y-19050000D03*
D14*
X66675000Y-19050000D03*
D12*
X43815000Y-16510000D03*
X50165000Y-13970000D03*
D13*
X52705000Y-19050000D03*
X42545000Y-19050000D03*
D14*
X47625000Y-19050000D03*
D12*
X348615000Y2540000D03*
X354965000Y5080000D03*
D13*
X357505000Y0D03*
X347345000Y0D03*
D14*
X352425000Y0D03*
D12*
X329565000Y2540000D03*
X335915000Y5080000D03*
D13*
X338455000Y0D03*
X328295000Y0D03*
D14*
X333375000Y0D03*
D12*
X310515000Y2540000D03*
X316865000Y5080000D03*
D13*
X319405000Y0D03*
X309245000Y0D03*
D14*
X314325000Y0D03*
D12*
X291465000Y2540000D03*
X297815000Y5080000D03*
D13*
X300355000Y0D03*
X290195000Y0D03*
D14*
X295275000Y0D03*
D12*
X224790000Y2540000D03*
X231140000Y5080000D03*
D13*
X233680000Y0D03*
X223520000Y0D03*
D14*
X228600000Y0D03*
D12*
X205740000Y2540000D03*
X212090000Y5080000D03*
D13*
X214630000Y0D03*
X204470000Y0D03*
D14*
X209550000Y0D03*
D12*
X186690000Y2540000D03*
X193040000Y5080000D03*
D13*
X195580000Y0D03*
X185420000Y0D03*
D14*
X190500000Y0D03*
D12*
X167640000Y2540000D03*
X173990000Y5080000D03*
D13*
X176530000Y0D03*
X166370000Y0D03*
D14*
X171450000Y0D03*
D12*
X148590000Y2540000D03*
X154940000Y5080000D03*
D13*
X157480000Y0D03*
X147320000Y0D03*
D14*
X152400000Y0D03*
D12*
X129540000Y2540000D03*
X135890000Y5080000D03*
D13*
X138430000Y0D03*
X128270000Y0D03*
D14*
X133350000Y0D03*
D12*
X110490000Y2540000D03*
X116840000Y5080000D03*
D13*
X119380000Y0D03*
X109220000Y0D03*
D14*
X114300000Y0D03*
D12*
X91440000Y2540000D03*
X97790000Y5080000D03*
D13*
X100330000Y0D03*
X90170000Y0D03*
D14*
X95250000Y0D03*
D12*
X72390000Y2540000D03*
X78740000Y5080000D03*
D13*
X81280000Y0D03*
X71120000Y0D03*
D14*
X76200000Y0D03*
D12*
X53340000Y2540000D03*
X59690000Y5080000D03*
D13*
X62230000Y0D03*
X52070000Y0D03*
D14*
X57150000Y0D03*
D12*
X34290000Y2540000D03*
X40640000Y5080000D03*
D13*
X43180000Y0D03*
X33020000Y0D03*
D14*
X38100000Y0D03*
D12*
X15240000Y2540000D03*
X21590000Y5080000D03*
D13*
X24130000Y0D03*
X13970000Y0D03*
D14*
X19050000Y0D03*
D16*
X13387600Y4300000D03*
D17*
X13387600Y8500000D03*
D18*
X11977600Y4851000D03*
X6197600Y4851000D03*
D17*
X4787600Y8500000D03*
D16*
X4787600Y4300000D03*
M02*
